# xmcd CD database file
#
# Track frame offsets:
#	182
#	27737
#	49392
#	68487
#	90112
#	110637
#	117542
#	144162
#	151410
#	163980
#	195925
#	216650
#	236430
#
# Disc length: 3329 seconds
#
# Revision: 0
# Processed by: cddbd v1.4PL0 Copyright (c) Steve Scherf et al.
# Submitted via: CDex 1.51
#
DISCID=b60cff0d
DTITLE=Lo Greco Bros. - Segreti d'Autore
DYEAR=1992
DGENRE=Jazz
TTITLE0=L'ultima chance
TTITLE1=La collina degli dei
TTITLE2=Island
TTITLE3=Donna è...
TTITLE4=Maracanà
TTITLE5=Preludio
TTITLE6=Tempio Napoletano
TTITLE7=Quattro mani
TTITLE8=Easy love
TTITLE9=Segreti d'autore
TTITLE10=Jobs
TTITLE11=Miraggi
TTITLE12=Sticks Zip
EXTD=YEAR: 1992
EXTT0=
EXTT1=
EXTT2=
EXTT3=
EXTT4=
EXTT5=
EXTT6=
EXTT7=
EXTT8=
EXTT9=
EXTT10=
EXTT11=
EXTT12=
PLAYORDER=
